<svg width="40" height="44" viewBox="0 0 40 44" fill="none" xmlns="http://www.w3.org/2000/svg">
<circle cx="19.9815" cy="20.9047" r="18.9982" fill="#FFCE00" stroke="black" stroke-width="1.96669"/>
<path fill-rule="evenodd" clip-rule="evenodd" d="M4.5669 30.2379C3.85603 28.1968 3.46825 25.9153 3.46825 23.4175C3.46825 13.2624 11.6553 5.03005 21.7546 5.03005C25.9039 5.03005 29.3178 5.94337 32.0259 7.53684C28.8215 4.52179 24.5155 2.67596 19.7807 2.67596C9.88064 2.67596 1.85501 10.746 1.85501 20.7008C1.85501 24.2029 2.84824 27.4717 4.5669 30.2379Z" fill="#FFE454"/>
<path fill-rule="evenodd" clip-rule="evenodd" d="M36.9222 14.9298C37.5205 17.632 37.4643 20.6293 36.6093 23.8202C34.0842 33.2439 24.2734 38.8031 14.6962 36.2369C10.0951 35.004 6.75806 32.8678 4.54756 30.1621C6.84299 34.1019 10.6246 37.1674 15.3641 38.4373C24.9268 40.9997 34.7677 35.2818 37.3442 25.6661C38.331 21.9833 38.1091 18.2628 36.9222 14.9298Z" fill="#FFB100"/>
<path fill-rule="evenodd" clip-rule="evenodd" d="M26.9287 15.4408C28.2722 15.4408 29.3323 14.3747 29.3323 13.095L31.299 13.095C31.299 15.4926 29.3263 17.4075 26.9287 17.4075C24.5311 17.4075 22.5585 15.4926 22.5585 13.095L24.5251 13.095C24.5251 14.3747 25.5852 15.4408 26.9287 15.4408Z" fill="black"/>
<path fill-rule="evenodd" clip-rule="evenodd" d="M13.0343 15.4408C14.3778 15.4408 15.4379 14.3747 15.4379 13.095L17.4045 13.095C17.4045 15.4926 15.4319 17.4075 13.0343 17.4075C10.6367 17.4075 8.66405 15.4926 8.66405 13.095L10.6307 13.095C10.6307 14.3747 11.6908 15.4408 13.0343 15.4408Z" fill="black"/>
<path fill-rule="evenodd" clip-rule="evenodd" d="M19.9053 28.6265C23.7154 28.6265 26.8755 26.7025 28.224 24.1163L30.2469 25.1711C28.4499 28.6174 24.4386 30.9079 19.9053 30.9079C15.4286 30.9079 11.4632 28.675 9.63342 25.3021L11.6387 24.2142C13.015 26.7513 16.1446 28.6265 19.9053 28.6265Z" fill="black"/>
</svg>
