<svg width="40" height="46" viewBox="0 0 40 46" fill="none" xmlns="http://www.w3.org/2000/svg">
<circle cx="18.6793" cy="24.5464" r="17.7601" fill="#FFCE00" stroke="black" stroke-width="1.83851"/>
<path fill-rule="evenodd" clip-rule="evenodd" d="M4.26927 33.2713C3.60473 31.3633 3.24222 29.2305 3.24222 26.8955C3.24222 17.4021 10.8957 9.70628 20.3368 9.70628C24.2157 9.70628 27.4072 10.5601 29.9388 12.0497C26.9432 9.23114 22.9178 7.50562 18.4916 7.50562C9.2367 7.50562 1.73412 15.0497 1.73412 24.3558C1.73412 27.6296 2.66262 30.6854 4.26927 33.2713Z" fill="#FFE454"/>
<path fill-rule="evenodd" clip-rule="evenodd" d="M34.7586 19.7322C34.9066 21.7472 34.7048 23.9012 34.1004 26.1567C31.6434 35.3265 22.2588 40.7792 13.1394 38.3357C9.39271 37.3318 6.53099 35.6811 4.47118 33.587C6.63518 37.0848 10.0768 39.7934 14.3522 40.939C23.2917 43.3343 32.4912 37.9891 34.8998 29.0001C35.7472 25.8378 35.6412 22.6459 34.7586 19.7322Z" fill="#FFB100"/>
<path fill-rule="evenodd" clip-rule="evenodd" d="M11.751 16.9252C10.4951 16.9252 9.50409 17.9218 9.50409 19.1181L7.66557 19.1181C7.66557 16.8767 9.50966 15.0867 11.751 15.0867C13.9923 15.0867 15.8364 16.8767 15.8364 19.1181L13.9979 19.1181C13.9979 17.9218 13.0069 16.9252 11.751 16.9252Z" fill="black"/>
<path fill-rule="evenodd" clip-rule="evenodd" d="M24.5947 14.927C23.3388 14.927 22.3478 15.9237 22.3478 17.1199L20.5093 17.1199C20.5093 14.8786 22.3534 13.0885 24.5947 13.0885C26.8361 13.0885 28.6802 14.8786 28.6802 17.1199L26.8417 17.1199C26.8417 15.9237 25.8507 14.927 24.5947 14.927Z" fill="black"/>
<path fill-rule="evenodd" clip-rule="evenodd" d="M20.0316 28.7398C17.761 27.9126 15.4601 28.3731 14.0949 29.6215L13.1185 28.5537C14.9376 26.8901 17.8254 26.396 20.5269 27.3803C23.1948 28.3522 25.0731 30.5439 25.4312 32.9512L24 33.1641C23.7306 31.3533 22.2728 29.5563 20.0316 28.7398Z" fill="black"/>
<path d="M34.7729 8.80196L34.7568 8.33482C34.7246 7.91064 34.7515 7.54284 34.8374 7.23142C34.9286 6.91463 35.087 6.63274 35.3126 6.38574C35.5434 6.13875 35.8414 5.90787 36.2066 5.6931C36.5556 5.48369 36.8267 5.29308 37.02 5.12126C37.2187 4.94944 37.3583 4.76957 37.4388 4.58164C37.5194 4.39371 37.5596 4.17357 37.5596 3.92121V3.9051C37.5596 3.65274 37.4952 3.42991 37.3663 3.23662C37.2428 3.03795 37.0656 2.88224 36.8348 2.76948C36.6039 2.65135 36.3354 2.59229 36.0294 2.59229C35.7233 2.59229 35.4548 2.65404 35.224 2.77753C34.9931 2.90103 34.8105 3.07553 34.6763 3.30105C34.542 3.52119 34.4669 3.78161 34.4508 4.08229L34.4347 4.09034L32.2601 4.0984V4.08229C32.2762 3.42723 32.4373 2.84734 32.7433 2.34262C33.0547 1.83253 33.4977 1.4352 34.0722 1.15062C34.6521 0.866043 35.3528 0.723755 36.1743 0.723755C36.9422 0.723755 37.6106 0.855304 38.1798 1.1184C38.7543 1.3815 39.2 1.74662 39.5168 2.21375C39.8389 2.68089 40 3.22051 40 3.83261V3.84872C40 4.45546 39.855 4.97897 39.5651 5.41926C39.2751 5.85418 38.8456 6.23809 38.2764 6.57099C37.9221 6.77502 37.6455 6.96564 37.4469 7.14282C37.2482 7.31464 37.1086 7.4972 37.0281 7.6905C36.9475 7.8838 36.9073 8.11199 36.9073 8.37509V8.80196H34.7729ZM35.9247 12.684C35.4736 12.684 35.1166 12.5632 34.8535 12.3216C34.5904 12.08 34.4588 11.7524 34.4588 11.339C34.4588 10.9148 34.5904 10.5846 34.8535 10.3483C35.1166 10.1067 35.4736 9.9859 35.9247 9.9859C36.3757 9.9859 36.7301 10.1067 36.9878 10.3483C37.2509 10.5846 37.3824 10.9148 37.3824 11.339C37.3824 11.7524 37.2509 12.08 36.9878 12.3216C36.7301 12.5632 36.3757 12.684 35.9247 12.684Z" fill="black"/>
<ellipse cx="11.8732" cy="21.5683" rx="2.05358" ry="2.45016" fill="black"/>
<ellipse cx="24.5947" cy="21.5683" rx="2.05358" ry="2.45016" fill="black"/>
</svg>
