<svg width="40" height="44" viewBox="0 0 40 44" fill="none" xmlns="http://www.w3.org/2000/svg">
<circle cx="19.9681" cy="20.904" r="18.9854" fill="#FFCE00" stroke="#273644" stroke-width="1.96536"/>
<path fill-rule="evenodd" clip-rule="evenodd" d="M4.56382 30.2309C3.85343 28.1912 3.46591 25.9113 3.46591 23.4152C3.46591 13.2669 11.6475 5.04006 21.7399 5.04006C25.8864 5.04006 29.2981 5.95276 32.0043 7.54516C28.8021 4.53214 24.499 2.68756 19.7674 2.68756C9.87398 2.68756 1.85376 10.7521 1.85376 20.7003C1.85376 24.2 2.84632 27.4665 4.56382 30.2309Z" fill="#FFE454"/>
<path fill-rule="evenodd" clip-rule="evenodd" d="M36.9243 14.9359C37.5222 17.6363 37.466 20.6316 36.6116 23.8203C34.0882 33.2377 24.284 38.7932 14.7133 36.2287C10.1153 34.9967 6.78047 32.8618 4.57147 30.1579C6.86534 34.0952 10.6444 37.1586 15.3807 38.4276C24.937 40.9882 34.7712 35.2742 37.346 25.6651C38.3321 21.9847 38.1103 18.2667 36.9243 14.9359Z" fill="#FFB100"/>
<path d="M28.6508 12.3312L28.045 11.6034L27.4392 12.3312L26.1612 13.8665L24.3062 14.6075L23.4268 14.9587L23.9318 15.7598L24.997 17.4496L25.1285 19.4429L25.1908 20.3877L26.1087 20.155L28.045 19.6641L29.9813 20.155L30.8992 20.3877L30.9615 19.4429L31.093 17.4496L32.1583 15.7598L32.6632 14.9587L31.7838 14.6075L29.9288 13.8665L28.6508 12.3312Z" fill="#FFE65F" stroke="#273644" stroke-width="1.57641"/>
<path d="M11.6869 12.3312L11.0811 11.6034L10.4754 12.3312L9.19738 13.8665L7.34232 14.6075L6.46296 14.9587L6.96791 15.7598L8.03315 17.4496L8.16463 19.4429L8.22695 20.3877L9.14483 20.155L11.0811 19.6641L13.0175 20.155L13.9353 20.3877L13.9977 19.4429L14.1292 17.4496L15.1944 15.7598L15.6993 14.9587L14.82 14.6075L12.9649 13.8665L11.6869 12.3312Z" fill="#FFE65F" stroke="#273644" stroke-width="1.57641"/>
<path d="M10.321 26.0067H29.679C29.2808 30.6054 25.4216 34.2138 20.7196 34.2138H19.2805C14.5785 34.2138 10.7192 30.6054 10.321 26.0067Z" fill="#CAD8EB" stroke="#273644" stroke-width="1.57229"/>
<path d="M17.5579 33.2866C14.3049 32.7506 12.3211 29.8443 11.7358 28.4581H28.2546C27.7926 29.567 26.6836 31.5424 23.8188 32.8246C23.0872 33.2019 20.8108 33.8226 17.5579 33.2866Z" fill="white"/>
</svg>
