<svg width="40" height="44" viewBox="0 0 40 44" fill="none" xmlns="http://www.w3.org/2000/svg">
<circle cx="19.9872" cy="20.903" r="19.0036" fill="#FFCE00" stroke="black" stroke-width="1.96724"/>
<path fill-rule="evenodd" clip-rule="evenodd" d="M4.56819 30.2388C3.85712 28.1972 3.46922 25.915 3.46922 23.4165C3.46922 13.2585 11.6586 5.02382 21.7608 5.02382C25.9112 5.02382 29.3261 5.9374 32.035 7.53132C28.8297 4.51541 24.5224 2.66907 19.7863 2.66907C9.88343 2.66907 1.85553 10.7414 1.85553 20.6991C1.85553 24.2021 2.84904 27.4718 4.56819 30.2388Z" fill="#FFE454"/>
<path fill-rule="evenodd" clip-rule="evenodd" d="M36.9214 14.9292C37.5198 17.6322 37.4636 20.6303 36.6084 23.8221C34.0826 33.2485 24.269 38.8093 14.6891 36.2424C10.0867 35.0091 6.74863 32.8723 4.53751 30.1658C6.83358 34.1068 10.6163 37.1731 15.3571 38.4434C24.9226 41.0065 34.7662 35.287 37.3434 25.6686C38.3305 21.9847 38.1085 18.2632 36.9214 14.9292Z" fill="#FFB100"/>
<path fill-rule="evenodd" clip-rule="evenodd" d="M11.9548 13.673C13.2529 13.3252 14.0011 12.0206 13.6698 10.7842L15.57 10.2751C16.1907 12.5916 14.7805 14.9525 12.464 15.5732C10.1474 16.1939 7.74569 14.8545 7.12497 12.5379L9.02518 12.0288C9.35648 13.2652 10.6567 14.0208 11.9548 13.673Z" fill="black"/>
<path fill-rule="evenodd" clip-rule="evenodd" d="M27.8975 13.3266C29.0111 14.0787 30.4867 13.7885 31.2032 12.7278L32.8334 13.8289C31.491 15.8163 28.7838 16.2991 26.7964 14.9568C25.3874 14.0051 24.6943 12.3752 24.8885 10.7989C25.7332 10.9815 25.8579 11.0084 26.8273 11.218C26.7898 12.0179 27.1625 12.8301 27.8975 13.3266Z" fill="black"/>
<path fill-rule="evenodd" clip-rule="evenodd" d="M19.9523 31.2229C23.7635 31.2229 26.9245 29.2982 28.2734 26.7113L30.2969 27.7664C28.4993 31.2137 24.4869 33.5049 19.9523 33.5049C15.4744 33.5049 11.5078 31.2713 9.67755 27.8975L11.6834 26.8093C13.0601 29.3471 16.1905 31.2229 19.9523 31.2229Z" fill="black"/>
<ellipse cx="13.0858" cy="19.416" rx="2.19737" ry="2.62171" fill="black"/>
<ellipse cx="13.0858" cy="21.6973" rx="3.22674" ry="0.822049" fill="#3EB1DE"/>
<ellipse cx="26.8886" cy="19.0756" rx="2.19737" ry="2.62171" fill="black"/>
<ellipse cx="27.0946" cy="21.4779" rx="3.32433" ry="0.846912" fill="#3EB1DE"/>
</svg>
