<svg width="40" height="44" viewBox="0 0 40 44" fill="none" xmlns="http://www.w3.org/2000/svg">
<circle cx="19.9872" cy="20.903" r="19.0036" fill="#FFCE00" stroke="#273644" stroke-width="1.96724"/>
<path fill-rule="evenodd" clip-rule="evenodd" d="M4.56823 30.2388C3.85714 28.1972 3.46924 25.915 3.46924 23.4165C3.46924 13.2585 11.6586 5.02378 21.7608 5.02378C25.9112 5.02378 29.326 5.93733 32.0349 7.53121C28.8296 4.51537 24.5224 2.66907 19.7864 2.66907C9.88344 2.66907 1.85555 10.7414 1.85555 20.6991C1.85555 24.2021 2.84907 27.4718 4.56823 30.2388Z" fill="#FFE454"/>
<path fill-rule="evenodd" clip-rule="evenodd" d="M36.9214 14.9292C37.5198 17.6322 37.4636 20.6302 36.6084 23.822C34.0826 33.2485 24.269 38.8092 14.6891 36.2423C10.0867 35.0091 6.74866 32.8722 4.53754 30.1658C6.83362 34.1067 10.6163 37.173 15.3571 38.4433C24.9226 41.0064 34.7662 35.2869 37.3434 25.6685C38.3305 21.9846 38.1085 18.2631 36.9214 14.9292Z" fill="#FFB100"/>
<path fill-rule="evenodd" clip-rule="evenodd" d="M13.038 15.0582C11.6942 15.0582 10.6338 16.1247 10.6338 17.4047H8.66653C8.66653 15.0064 10.6397 13.091 13.038 13.091C15.4363 13.091 17.4095 15.0064 17.4095 17.4047H15.4423C15.4423 16.1247 14.3819 15.0582 13.038 15.0582Z" fill="#273644"/>
<path fill-rule="evenodd" clip-rule="evenodd" d="M26.9363 15.0582C25.5925 15.0582 24.5321 16.1247 24.5321 17.4047H22.5649C22.5649 15.0064 24.5381 13.091 26.9363 13.091C29.3346 13.091 31.3078 15.0064 31.3078 17.4047H29.3406C29.3406 16.1247 28.2802 15.0582 26.9363 15.0582Z" fill="#273644"/>
<path fill-rule="evenodd" clip-rule="evenodd" d="M19.911 28.6269C23.7222 28.6269 26.8832 26.7023 28.232 24.1154L30.2555 25.1704C28.458 28.6178 24.4456 30.9089 19.911 30.9089C15.433 30.9089 11.4665 28.6753 9.63618 25.3015L11.642 24.2134C13.0188 26.7511 16.1492 28.6269 19.911 28.6269Z" fill="#273644"/>
<path fill-rule="evenodd" clip-rule="evenodd" d="M19.911 28.6269C23.7222 28.6269 26.8832 26.7023 28.232 24.1154L30.2555 25.1704C28.458 28.6178 24.4456 30.9089 19.911 30.9089C15.433 30.9089 11.4665 28.6753 9.63618 25.3015L11.642 24.2134C13.0188 26.7511 16.1492 28.6269 19.911 28.6269Z" fill="#273644"/>
</svg>
