<svg width="40" height="44" viewBox="0 0 40 44" fill="none" xmlns="http://www.w3.org/2000/svg">
<circle cx="20" cy="20.9046" r="19.0157" fill="#FFCE00" stroke="black" stroke-width="1.9685"/>
<path fill-rule="evenodd" clip-rule="evenodd" d="M4.57112 30.2463C3.85959 28.2034 3.47145 25.9198 3.47145 23.4197C3.47145 13.2552 11.6661 5.0152 21.7747 5.0152C25.9278 5.0152 29.3449 5.92936 32.0555 7.5243C28.8482 4.50646 24.5382 2.65894 19.799 2.65894C9.88976 2.65894 1.85672 10.7364 1.85672 20.7005C1.85672 24.2058 2.85087 27.4776 4.57112 30.2463Z" fill="#FFE454"/>
<path fill-rule="evenodd" clip-rule="evenodd" d="M36.9189 14.9223C37.5177 17.627 37.4615 20.6271 36.6057 23.8209C34.0783 33.2534 24.2584 38.8177 14.6723 36.2491C10.067 35.0151 6.72684 32.8769 4.5143 30.1687C6.81184 34.1122 10.597 37.1805 15.3408 38.4516C24.9124 41.0163 34.7623 35.2932 37.3412 25.6686C38.329 21.9823 38.1068 18.2584 36.9189 14.9223Z" fill="#FFB100"/>
<circle cx="13.0464" cy="16.4527" r="2.19877" fill="black"/>
<circle cx="26.9536" cy="16.4527" r="2.19877" fill="black"/>
<path fill-rule="evenodd" clip-rule="evenodd" d="M19.9935 26.4025C16.1799 26.4025 13.0168 28.3284 11.6671 30.917L9.64235 29.8612C11.441 26.4117 15.456 24.1191 19.9935 24.1191C24.4743 24.1191 28.4434 26.3541 30.2749 29.7301L28.2677 30.8189C26.8901 28.2795 23.7577 26.4025 19.9935 26.4025Z" fill="black"/>
</svg>
