<svg width="40" height="46" viewBox="0 0 40 46" fill="none" xmlns="http://www.w3.org/2000/svg">
<circle cx="20" cy="23.0701" r="19.0157" fill="#FFCE00" stroke="black" stroke-width="1.9685"/>
<path fill-rule="evenodd" clip-rule="evenodd" d="M4.57112 32.4119C3.85959 30.3689 3.47145 28.0853 3.47145 25.5852C3.47145 15.4207 11.6661 7.18072 21.7747 7.18072C25.9278 7.18072 29.3449 8.09489 32.0555 9.68983C28.8482 6.67199 24.5382 4.82446 19.799 4.82446C9.88976 4.82446 1.85672 12.9019 1.85672 22.866C1.85672 26.3713 2.85087 29.6431 4.57112 32.4119Z" fill="#FFE454"/>
<path fill-rule="evenodd" clip-rule="evenodd" d="M37.2161 17.9153C37.3747 20.0728 37.1585 22.3791 36.5115 24.794C33.8807 34.6122 23.8326 40.4504 14.0684 37.8341C10.0568 36.7592 6.99277 34.9918 4.78733 32.7497C7.10433 36.4948 10.7893 39.3949 15.3669 40.6214C24.9386 43.1862 34.7885 37.463 37.3674 27.8385C38.2746 24.4526 38.1611 21.035 37.2161 17.9153Z" fill="#FFB100"/>
<path fill-rule="evenodd" clip-rule="evenodd" d="M26.9536 17.6011C28.2983 17.6011 29.3594 16.534 29.3594 15.2531L31.3279 15.2531C31.3279 17.6529 29.3534 19.5696 26.9536 19.5696C24.5538 19.5696 22.5793 17.6529 22.5793 15.2531L24.5478 15.2531C24.5478 16.534 25.6089 17.6011 26.9536 17.6011Z" fill="black"/>
<path fill-rule="evenodd" clip-rule="evenodd" d="M13.0464 17.6011C14.3911 17.6011 15.4522 16.534 15.4522 15.2531L17.4207 15.2531C17.4207 17.6529 15.4462 19.5696 13.0464 19.5696C10.6466 19.5696 8.67208 17.6529 8.67208 15.2531L10.6406 15.2531C10.6406 16.534 11.7017 17.6011 13.0464 17.6011Z" fill="black"/>
<ellipse cx="20" cy="28.4585" rx="2.19877" ry="2.62339" fill="black"/>
<path d="M17.8012 13.4917V12.6582L20.873 8.51593V8.43977H17.8732V7.38623H22.43V8.21552L19.3667 12.362V12.4381H22.5147V13.4917H17.8012Z" fill="black"/>
<path d="M23.1474 8.91422V7.79755L27.2626 2.2482V2.14617H23.2437V0.734741H29.3486V1.84575L25.2447 7.40076V7.5028H29.462V8.91422H23.1474Z" fill="black"/>
<path d="M30.5216 13.4788V12.2325L35.1146 6.03889V5.92501H30.6291V4.34973H37.4427V5.58971L32.8624 11.7896V11.9035H37.5692V13.4788H30.5216Z" fill="black"/>
</svg>
