<svg width="40" height="44" viewBox="0 0 40 44" fill="none" xmlns="http://www.w3.org/2000/svg">
<circle cx="19.9815" cy="20.9047" r="18.9982" fill="#FFCE00" stroke="black" stroke-width="1.96669"/>
<path fill-rule="evenodd" clip-rule="evenodd" d="M4.5669 30.2379C3.85603 28.1968 3.46825 25.9153 3.46825 23.4175C3.46825 13.2624 11.6553 5.03005 21.7546 5.03005C25.9039 5.03005 29.3178 5.94337 32.0259 7.53684C28.8215 4.52179 24.5155 2.67596 19.7807 2.67596C9.88064 2.67596 1.85501 10.746 1.85501 20.7008C1.85501 24.2029 2.84824 27.4717 4.5669 30.2379Z" fill="#FFE454"/>
<path fill-rule="evenodd" clip-rule="evenodd" d="M36.9222 14.9298C37.5205 17.632 37.4643 20.6293 36.6093 23.8202C34.0842 33.2439 24.2734 38.8031 14.6962 36.2369C10.0951 35.004 6.75806 32.8678 4.54756 30.1621C6.84299 34.1019 10.6246 37.1674 15.3641 38.4373C24.9268 40.9997 34.7677 35.2818 37.3442 25.6661C38.331 21.9833 38.1091 18.2628 36.9222 14.9298Z" fill="#FFB100"/>
<path d="M24.7213 24.8588V30.4975C24.7213 32.2075 23.3351 33.5938 21.6251 33.5938H18.3749C16.6649 33.5938 15.2787 32.2075 15.2787 30.4975V24.8588C15.2787 22.2512 17.3925 20.1374 20 20.1374C22.6075 20.1374 24.7213 22.2513 24.7213 24.8588Z" fill="#C6443F" stroke="black" stroke-width="1.57335"/>
<path d="M23.9161 29.8558V31.6554C23.9161 32.4718 23.2542 33.1337 22.4377 33.1337H17.5623C16.7458 33.1337 16.0839 32.4718 16.0839 31.6554V29.8558C16.0839 27.693 17.8372 25.9398 20 25.9398C22.1628 25.9398 23.9161 27.693 23.9161 29.8558Z" fill="#E48482" stroke="black" stroke-width="1.57335"/>
<ellipse cx="13.1896" cy="15.8431" rx="2.19674" ry="2.62097" fill="black"/>
<ellipse cx="26.9885" cy="15.5027" rx="2.19674" ry="2.62097" fill="black"/>
<path fill-rule="evenodd" clip-rule="evenodd" d="M13.1005 9.82313C11.7571 9.82313 10.697 10.8893 10.697 12.1689L8.73028 12.1689C8.73029 9.77131 10.7029 7.85645 13.1005 7.85645C15.4981 7.85645 17.4708 9.77131 17.4708 12.1689L15.5041 12.1689C15.5041 10.8893 14.444 9.82313 13.1005 9.82313Z" fill="black"/>
<path fill-rule="evenodd" clip-rule="evenodd" d="M26.8995 9.61573C25.556 9.61573 24.4959 10.6819 24.4959 11.9615L22.5292 11.9615C22.5292 9.56392 24.5019 7.64905 26.8995 7.64905C29.2971 7.64905 31.2697 9.56392 31.2697 11.9615L29.303 11.9615C29.303 10.6819 28.243 9.61573 26.8995 9.61573Z" fill="black"/>
</svg>
